<svg width="120" height="140" viewBox="0 0 120 140" fill="none" xmlns="http://www.w3.org/2000/svg">
<path d="M44.8018 2.84007C44.8921 2.74552 44.9785 2.65436 45.0609 2.56688C45.964 3.08883 47.2424 3.78147 48.7612 4.47492C51.7648 5.84629 55.9014 7.31117 60 7.31117C64.0986 7.31117 68.2352 5.84629 71.2388 4.47492C72.7632 3.77895 74.0453 3.08379 74.949 2.56119C74.9572 2.55644 74.9654 2.5517 74.9735 2.54698C75.0601 2.63493 75.151 2.72682 75.2461 2.82234C76.127 3.70702 77.3736 4.90974 78.8381 6.1823C81.7003 8.6693 85.6401 11.6435 89.4022 12.8219C96.386 15.0095 101.601 14.2968 105.144 12.9043C106.649 12.3125 107.825 11.6089 108.687 10.9871L117.346 22.2314C117.053 22.5401 116.718 22.9022 116.347 23.3164C114.978 24.8471 113.123 27.0935 111.154 29.9837C107.22 35.7542 102.794 44.1399 100.892 54.554C97.7217 70.6185 102.178 85.7685 107.32 96.7929C109.899 102.322 112.672 106.861 114.802 110.02C115.868 111.601 116.775 112.84 117.42 113.688C117.426 113.696 117.432 113.705 117.438 113.713L109.212 123.814C108.426 123.318 107.371 122.714 106.078 122.111C103.105 120.726 98.835 119.333 93.6735 119.333C80.8694 119.333 71.9988 124.229 66.3394 129.159C63.5202 131.614 61.5041 134.072 60.1873 135.925C60.1233 136.015 60.0608 136.104 60 136.191C59.9392 136.104 59.8767 136.015 59.8127 135.925C58.4959 134.072 56.4798 131.614 53.6606 129.159C48.0012 124.229 39.1306 119.333 26.3265 119.333C21.3309 119.333 17.0413 120.865 14.0316 122.365C12.7019 123.027 11.607 123.691 10.7932 124.23L2.5444 113.735C2.55623 113.72 2.56815 113.704 2.58016 113.688C3.22481 112.84 4.13194 111.601 5.19782 110.02C7.32804 106.861 10.1009 102.322 12.6799 96.7929C17.8218 85.7685 22.2783 70.6185 19.1077 54.554C17.2058 44.1399 12.7797 35.7542 8.8465 29.9837C6.87653 27.0935 5.02192 24.8471 3.65261 23.3164C3.20747 22.8188 2.81318 22.3963 2.48236 22.0514L8.72193 10.8323C9.84757 11.403 11.4503 12.103 13.4644 12.6929C17.6063 13.9059 23.487 14.6514 30.4976 12.8505C34.3998 11.848 38.3804 8.82728 41.2276 6.29583C42.6899 4.99572 43.9286 3.75529 44.8018 2.84007Z" stroke="#c87e28" stroke-width="4"/>
<path d="M37.4844 56.8672C34.7188 56.8672 32.5547 56.3203 30.9922 55.2266C29.3516 54.0703 28.5312 52.4219 28.5312 50.2812C28.5312 48.9844 28.9062 47.9375 29.6562 47.1406C30.3906 46.3594 31.3203 45.9688 32.4453 45.9688C33.1172 45.9688 33.6484 46.0703 34.0391 46.2734C34.4453 46.4766 34.7969 46.7891 35.0938 47.2109C33.9062 47.9141 33.3125 49.0703 33.3125 50.6797C33.3125 51.1328 33.3906 51.5625 33.5469 51.9688C33.7188 52.3594 33.9609 52.6953 34.2734 52.9766C34.9609 53.6172 35.9062 53.9375 37.1094 53.9375C38.1875 53.9375 39.1562 53.6641 40.0156 53.1172C40.875 52.5547 41.6016 51.7734 42.1953 50.7734C42.7578 49.8516 43.1875 48.7969 43.4844 47.6094C43.7812 46.4219 43.9297 45.2031 43.9297 43.9531C43.9297 41.8594 43.4453 40.3125 42.4766 39.3125C41.5703 38.4062 40.2109 37.9531 38.3984 37.9531H36.3828L37.1562 34.3906H38.8906C39.9219 34.3906 40.8594 34.1562 41.7031 33.6875C42.5625 33.2031 43.2891 32.5625 43.8828 31.7656C44.4297 31.0469 44.8438 30.2578 45.125 29.3984C45.4219 28.5234 45.5703 27.7109 45.5703 26.9609C45.5703 25.7891 45.2422 24.875 44.5859 24.2188C43.9453 23.5469 43.0234 23.2109 41.8203 23.2109C38.8047 23.2109 36.3516 25.0547 34.4609 28.7422L33.3594 28.25C33.6875 26.9219 34.2031 25.7344 34.9062 24.6875C35.6094 23.6406 36.4531 22.7656 37.4375 22.0625C38.3594 21.3906 39.3828 20.8906 40.5078 20.5625C41.6484 20.2188 42.8359 20.0469 44.0703 20.0469C46.9609 20.0469 49.1562 20.7344 50.6562 22.1094C52.0625 23.4219 52.7656 25.2656 52.7656 27.6406C52.7656 29.5312 52.125 31.2188 50.8438 32.7031C49.5781 34.125 47.8203 35.2188 45.5703 35.9844C47.5703 36.5781 49.0781 37.4922 50.0938 38.7266C51.2031 40.0859 51.7578 41.7344 51.7578 43.6719C51.7578 45.4531 51.4297 47.1484 50.7734 48.7578C50.1172 50.3516 49.1719 51.75 47.9375 52.9531C46.6719 54.1875 45.1484 55.1484 43.3672 55.8359C41.6016 56.5234 39.6406 56.8672 37.4844 56.8672ZM75.4297 56.8203C74.0391 56.8203 73.0312 56.4688 72.4062 55.7656C71.9219 55.2344 71.6797 54.5156 71.6797 53.6094C71.6797 52.8906 71.7891 52.0625 72.0078 51.125C72.2266 50.1719 72.5469 48.9453 72.9688 47.4453C73.3906 45.9297 73.7031 44.6797 73.9062 43.6953C74.125 42.7109 74.2344 41.8047 74.2344 40.9766C74.2344 39.9609 74.0234 39.1719 73.6016 38.6094C73.1328 38.0156 72.3828 37.7188 71.3516 37.7188C70.7891 37.7188 70.2656 37.7812 69.7812 37.9062L65.9375 56H59.0234L65.9844 23.3516C63.8281 24.2578 62.1641 25.6016 60.9922 27.3828C59.8359 29.1641 59.2578 31.3281 59.2578 33.875C59.2578 34.9062 59.375 35.7031 59.6094 36.2656C59.6719 36.4688 59.75 36.6484 59.8438 36.8047C59.9062 36.9141 59.9375 37.0234 59.9375 37.1328C58.2188 37.1328 56.9453 36.7891 56.1172 36.1016C55.2422 35.3672 54.8047 34.1562 54.8047 32.4688C54.8047 31.4375 55.0234 30.4062 55.4609 29.375C55.9141 28.3438 56.5547 27.3516 57.3828 26.3984C58.1797 25.4766 59.1172 24.625 60.1953 23.8438C61.2734 23.0625 62.4453 22.3828 63.7109 21.8047C66.3984 20.6016 69.0391 20 71.6328 20C72.3516 20 72.9922 20.0312 73.5547 20.0938L70.4844 34.4375C71.0781 32.5938 72.0234 30.5781 73.3203 28.3906C74.3047 26.7188 75.2812 25.3125 76.25 24.1719C77.3906 22.7656 78.5547 21.7188 79.7422 21.0312C80.9453 20.3438 82.1328 20 83.3047 20C83.7891 20 84.25 20.0703 84.6875 20.2109C85.125 20.3516 85.5078 20.5547 85.8359 20.8203C86.5547 21.4141 86.9141 22.2109 86.9141 23.2109C86.9141 24.3359 86.5781 25.2109 85.9062 25.8359C85.3594 26.3359 84.6562 26.5859 83.7969 26.5859C82.4219 26.5859 81.4766 25.9453 80.9609 24.6641C79.3203 25.6484 77.8359 27.0469 76.5078 28.8594C75.1797 30.6719 73.9062 32.9219 72.6875 35.6094C73.2188 35.5781 73.5859 35.5625 73.7891 35.5625H74.7031C76.8906 35.5625 78.4688 36.0469 79.4375 37.0156C80.25 37.8438 80.6562 39.0703 80.6562 40.6953C80.6562 41.5859 80.5547 42.5391 80.3516 43.5547C80.1484 44.5547 79.8594 45.7422 79.4844 47.1172C79.0625 48.6484 78.7578 49.8203 78.5703 50.6328C78.3984 51.4297 78.3125 52.1641 78.3125 52.8359C78.3125 53.5859 78.4766 54.25 78.8047 54.8281C79.1484 55.3906 79.6094 55.7812 80.1875 56C78.2656 56.5469 76.6797 56.8203 75.4297 56.8203Z" fill="#734B0F"/>
<path d="M57.8359 117C56.7734 117 55.7031 116.75 54.625 116.25C53.5469 115.766 52.3828 115.07 51.1328 114.164C49.9922 113.367 48.8594 112.492 47.7344 111.539C45.0938 109.352 42.6797 107.805 40.4922 106.898C39.2266 106.367 37.8672 106.102 36.4141 106.102H35.875C35.7812 106.102 35.5938 106.117 35.3125 106.148L42.4609 72.8906C40.3047 73.7812 38.6484 75.1094 37.4922 76.875C36.3359 78.625 35.7578 80.7812 35.7578 83.3438C35.7578 84.3281 35.8672 85.1328 36.0859 85.7578C36.1484 85.9609 36.2266 86.1406 36.3203 86.2969C36.3828 86.4062 36.4141 86.5156 36.4141 86.625C34.6797 86.625 33.4141 86.2734 32.6172 85.5703C31.7266 84.8203 31.2812 83.6172 31.2812 81.9609C31.2812 80.9141 31.5078 79.8828 31.9609 78.8672C32.4141 77.8359 33.0547 76.8438 33.8828 75.8906C34.6797 74.9688 35.6172 74.1172 36.6953 73.3359C37.7891 72.5391 38.9609 71.8516 40.2109 71.2734C42.8672 70.0703 45.5078 69.4688 48.1328 69.4688C48.7109 69.4688 49.3516 69.5078 50.0547 69.5859L42.6719 104.039C43.4375 104.211 44.2109 104.469 44.9922 104.812C45.7891 105.156 46.6953 105.602 47.7109 106.148L50.3359 107.555C52.3672 108.664 54.2031 109.43 55.8438 109.852C56.7812 110.102 57.7656 110.227 58.7969 110.227C60.25 110.227 61.5938 109.969 62.8281 109.453C62.5469 111.797 61.9766 113.633 61.1172 114.961C60.6953 115.617 60.2031 116.117 59.6406 116.461C59.0938 116.82 58.4922 117 57.8359 117ZM71.0078 105.773C69.1953 105.773 67.6406 105.555 66.3438 105.117C65.0469 104.695 63.9688 104.023 63.1094 103.102C62.2344 102.164 61.5781 100.945 61.1406 99.4453C60.7188 97.9297 60.5078 96.1016 60.5078 93.9609C60.5078 91.5391 60.7891 89.0156 61.3516 86.3906C62.0078 83.3438 62.9453 80.6172 64.1641 78.2109C65.5859 75.4141 67.3125 73.2344 69.3438 71.6719C71.6562 69.8906 74.2969 69 77.2656 69C79.6562 69 81.5547 69.5 82.9609 70.5C84.5078 71.5938 85.2812 73.2344 85.2812 75.4219C85.2812 76.7969 85.0312 77.8516 84.5312 78.5859C83.9375 79.4297 83.0625 79.8516 81.9062 79.8516C81.4219 79.8516 80.9453 79.7656 80.4766 79.5938C80.0234 79.4219 79.5938 79.0938 79.1875 78.6094C79.4688 78.4688 79.7422 78.25 80.0078 77.9531C80.2734 77.6406 80.5078 77.2812 80.7109 76.875C81.1641 75.9688 81.3906 75.0703 81.3906 74.1797C81.3906 73.3203 81.1719 72.6406 80.7344 72.1406C80.2188 71.5469 79.4609 71.25 78.4609 71.25C77.6016 71.25 76.75 71.5703 75.9062 72.2109C75.0781 72.8359 74.2812 73.7266 73.5156 74.8828C72.7812 75.9922 72.1016 77.2891 71.4766 78.7734C70.8516 80.2578 70.3203 81.8359 69.8828 83.5078C69.4453 85.1953 69.1016 86.9141 68.8516 88.6641C68.6016 90.4141 68.4766 92.0859 68.4766 93.6797C68.4766 94.8672 68.5625 95.9062 68.7344 96.7969C68.9219 97.6875 69.2188 98.4453 69.625 99.0703C70.5156 100.461 72.0547 101.156 74.2422 101.156C76.1172 101.156 77.8594 100.742 79.4688 99.9141C81.0781 99.0703 82.4531 97.8828 83.5938 96.3516L84.6953 96.8438C84.0859 98.375 83.2422 99.7188 82.1641 100.875C81.1016 102.016 79.8984 102.961 78.5547 103.711C77.3203 104.398 76.0469 104.914 74.7344 105.258C73.4219 105.602 72.1797 105.773 71.0078 105.773Z" fill="#734B0F"/>
</svg>
