<svg width="196" height="215" viewBox="0 0 196 215" fill="none" xmlns="http://www.w3.org/2000/svg">
<path d="M17.8727 191.963C17.6875 192.082 17.5139 192.195 17.3519 192.303L2.61356 174.672C2.78184 174.468 2.96733 174.241 3.16881 173.992C4.20989 172.703 5.67878 170.818 7.40655 168.408C10.8603 163.592 15.3583 156.67 19.5417 148.237C27.8896 131.408 35.0842 108.356 29.9604 83.9566C26.8873 68.1285 19.7314 55.3785 13.3693 46.6024C10.184 42.2086 7.18744 38.7964 4.98023 36.4765C3.9937 35.4396 3.16392 34.6199 2.54422 34.0272L13.7205 15.1325C14.0197 15.2884 14.3544 15.4569 14.7234 15.6346C16.5058 16.4931 19.0961 17.5692 22.379 18.4733C28.9507 20.2829 38.2991 21.4019 49.4696 18.7039C55.507 17.2457 61.8087 12.7881 66.4506 8.90767C68.8078 6.93719 70.8067 5.05521 72.2167 3.6658C72.6533 3.23558 73.0342 2.85188 73.3525 2.52655C73.6217 2.67881 73.9263 2.8482 74.2633 3.03148C75.7116 3.819 77.7679 4.86721 80.2111 5.91603C85.0559 7.99585 91.6 10.1564 98 10.1564C104.4 10.1564 110.944 7.99585 115.789 5.91603C118.232 4.86721 120.288 3.819 121.737 3.03148C122.088 2.84028 122.405 2.6642 122.682 2.50692C123.007 2.82362 123.396 3.19896 123.844 3.62131C125.268 4.96583 127.282 6.79298 129.646 8.72462C134.312 12.5363 140.574 16.9522 146.435 18.6783C157.553 21.9526 165.744 20.863 171.233 18.8348C173.962 17.8262 175.989 16.5979 177.351 15.6026C177.497 15.4962 177.635 15.3925 177.765 15.292L193.262 34.2134C192.667 34.7874 191.907 35.5441 191.02 36.4765C188.813 38.7964 185.816 42.2086 182.631 46.6024C176.269 55.3785 169.113 68.1284 166.04 83.9565C160.916 108.355 168.11 131.408 176.458 148.237C180.642 156.67 185.14 163.592 188.593 168.408C190.321 170.818 191.79 172.703 192.831 173.992C193.025 174.231 193.204 174.451 193.367 174.649L178.655 191.634C178.51 191.542 178.355 191.445 178.191 191.344C176.911 190.556 175.049 189.517 172.683 188.48C167.955 186.408 161.18 184.333 153 184.333C132.478 184.333 118.291 191.701 109.233 199.119C104.714 202.82 101.482 206.524 99.3732 209.315C98.8468 210.011 98.3899 210.651 98 211.221C97.6101 210.651 97.1532 210.011 96.6268 209.315C94.5176 206.524 91.2855 202.82 86.7673 199.119C77.7094 191.701 63.5223 184.333 43 184.333C35.1207 184.333 28.3263 186.607 23.5266 188.856C21.1214 189.982 19.2 191.111 17.8727 191.963Z" stroke="#734B0F" stroke-width="4"/>
<path d="M33.0358 170.771L37.8844 171.892L37.6492 173.76L30.5171 172.111L31.9383 160.825L34.2218 161.353L33.0358 170.771Z" fill="#734B0F"/>
<path d="M47.8544 170.719L43.4362 169.864L43.1172 172.894L48.3024 173.897L48.1053 175.769L40.6189 174.322L41.81 163.01L49.2811 164.454L49.0823 166.342L43.9124 165.342L43.6285 168.038L48.0467 168.893L47.8544 170.719Z" fill="#734B0F"/>
<path d="M57.9786 174.924L53.9167 174.301L52.9494 176.518L50.486 176.141L55.618 165.447L57.7648 165.776L61.0269 177.757L58.5635 177.379L57.9786 174.924ZM54.7002 172.505L57.511 172.936L56.4522 168.476L54.7002 172.505Z" fill="#734B0F"/>
<path d="M72.0582 169.428L68.5961 169.034L68.011 178.493L65.6823 178.228L66.2673 168.77L62.8518 168.382L62.969 166.487L72.1754 167.533L72.0582 169.428Z" fill="#734B0F"/>
<path d="M83.0797 179.717L80.7421 179.547L80.9353 174.675L76.3771 174.343L76.1839 179.215L73.8463 179.044L74.2972 167.678L76.6347 167.848L76.452 172.454L81.0103 172.786L81.193 168.18L83.5305 168.351L83.0797 179.717Z" fill="#734B0F"/>
<path d="M93.0314 175.096L88.5337 174.951L88.4803 177.997L93.7588 178.167L93.7258 180.05L86.1047 179.804L86.3042 168.431L93.9097 168.676L93.8764 170.574L88.6135 170.405L88.5659 173.115L93.0636 173.26L93.0314 175.096Z" fill="#734B0F"/>
<path d="M101.208 175.859L99.3404 175.872L99.3566 180.036L97.013 180.053L96.9686 168.678L101.195 168.648C102.539 168.638 103.576 168.93 104.308 169.524C105.039 170.118 105.407 170.962 105.411 172.055C105.415 172.831 105.248 173.481 104.911 174.004C104.58 174.522 104.074 174.937 103.393 175.25L105.872 179.88L105.872 179.99L103.357 180.008L101.208 175.859ZM99.333 173.974L101.224 173.96C101.812 173.956 102.267 173.804 102.589 173.505C102.911 173.201 103.071 172.786 103.069 172.26C103.066 171.723 102.911 171.302 102.603 170.997C102.299 170.692 101.833 170.542 101.202 170.546L99.3197 170.56L99.333 173.974Z" fill="#734B0F"/>
<path d="M124.174 175.111C124.134 176.341 123.719 177.336 122.931 178.097C122.148 178.857 121.092 179.285 119.762 179.381C118.307 179.485 117.143 179.078 116.268 178.159C115.398 177.235 114.93 175.917 114.863 174.205L114.836 173.51C114.794 172.417 114.948 171.44 115.3 170.58C115.652 169.72 116.175 169.043 116.87 168.55C117.569 168.051 118.392 167.767 119.337 167.7C120.646 167.606 121.715 167.882 122.542 168.527C123.37 169.172 123.87 170.125 124.045 171.386L121.707 171.554C121.621 170.824 121.395 170.308 121.029 170.005C120.668 169.697 120.129 169.569 119.412 169.62C118.633 169.676 118.059 169.999 117.692 170.589C117.329 171.173 117.165 172.054 117.201 173.231L117.234 174.09C117.282 175.318 117.502 176.202 117.893 176.743C118.289 177.284 118.887 177.525 119.687 177.468C120.409 177.416 120.941 177.214 121.281 176.861C121.626 176.502 121.812 175.975 121.837 175.279L124.174 175.111Z" fill="#734B0F"/>
<path d="M130.914 173.983L129.059 174.192L129.313 178.348L126.984 178.61L126.289 167.256L130.489 166.784C131.825 166.634 132.873 166.817 133.634 167.333C134.395 167.85 134.809 168.654 134.876 169.746C134.924 170.52 134.795 171.186 134.49 171.744C134.191 172.296 133.711 172.763 133.052 173.146L135.781 177.511L135.788 177.62L133.288 177.901L130.914 173.983ZM128.943 172.297L130.822 172.086C131.407 172.02 131.85 171.821 132.153 171.488C132.456 171.151 132.591 170.72 132.559 170.195C132.526 169.659 132.347 169.255 132.023 168.983C131.704 168.71 131.232 168.608 130.605 168.679L128.734 168.889L128.943 172.297Z" fill="#734B0F"/>
<path d="M144.68 173.913L140.618 174.535L140.041 176.989L137.578 177.367L140.817 165.39L142.963 165.061L148.119 175.751L145.655 176.129L144.68 173.913ZM141.086 172.548L143.897 172.117L142.129 168.09L141.086 172.548Z" fill="#734B0F"/>
<path d="M156.27 169.45L151.851 170.299L152.335 174.922L150.033 175.364L148.849 164.051L156.122 162.654L156.32 164.542L151.348 165.497L151.654 168.418L156.073 167.569L156.27 169.45Z" fill="#734B0F"/>
<path d="M167.318 162.032L163.922 162.813L165.1 172.216L162.816 172.741L161.638 163.338L158.288 164.109L158.052 162.225L167.082 160.148L167.318 162.032Z" fill="#734B0F"/>
<path d="M43.5331 138.188C42.2623 138.188 41.2988 137.875 40.6425 137.25C39.9967 136.625 39.6738 135.755 39.6738 134.641C39.6738 134.276 39.7363 133.729 39.8613 133C39.8821 132.833 39.9029 132.719 39.9238 132.656C39.9446 132.448 39.9654 132.307 39.9863 132.234C40.0279 132.026 40.0488 131.812 40.0488 131.594C40.0488 130.573 39.6425 130.062 38.83 130.062C38.5592 130.062 38.2675 130.156 37.955 130.344L37.4394 130.719L36.7831 131.25L35.3769 138H30.7675L34.1894 122H38.7988L37.4238 128.344C38.1113 127.656 38.7779 126.964 39.4238 126.266L39.6581 126C40.8977 124.667 41.7415 123.776 42.1894 123.328C42.929 122.589 43.6269 122.109 44.2831 121.891C44.6477 121.776 45.0279 121.719 45.4238 121.719C46.1425 121.719 46.6894 121.917 47.0644 122.312C47.4394 122.698 47.6269 123.203 47.6269 123.828C47.6269 124.484 47.4498 124.995 47.0956 125.359C46.7519 125.724 46.2571 125.906 45.6113 125.906C45.0175 125.906 44.5644 125.724 44.2519 125.359C43.9706 125.047 43.8404 124.682 43.8613 124.266C43.5279 124.464 43.2102 124.698 42.9081 124.969C42.6165 125.229 42.2935 125.542 41.9394 125.906L41.6269 126.25C41.481 126.396 41.2831 126.615 41.0331 126.906C40.7727 127.208 40.455 127.547 40.08 127.922C40.4446 127.839 40.8925 127.797 41.4238 127.797C42.5279 127.797 43.3248 128.052 43.8144 128.562C44.2519 129.01 44.4706 129.745 44.4706 130.766C44.4706 131.109 44.4081 131.615 44.2831 132.281C44.231 132.542 44.1842 132.818 44.1425 133.109C44.1008 133.391 44.08 133.656 44.08 133.906C44.08 134.698 44.5071 135.094 45.3613 135.094C45.6842 135.094 45.9602 135.042 46.1894 134.938C46.429 134.823 46.6477 134.646 46.8456 134.406C47.0331 134.188 47.2154 133.911 47.3925 133.578C47.5696 133.245 47.7779 132.807 48.0175 132.266H49.3613C48.0175 136.214 46.0748 138.188 43.5331 138.188ZM52.5013 138.188C51.2825 138.188 50.2981 137.807 49.5481 137.047C48.6731 136.151 48.2356 134.818 48.2356 133.047C48.2356 132.297 48.3138 131.505 48.47 130.672C48.6158 129.839 48.8346 129.016 49.1263 128.203C49.7929 126.37 50.7044 124.891 51.8606 123.766C53.194 122.484 54.7304 121.844 56.47 121.844C57.3346 121.844 57.9804 121.995 58.4075 122.297C58.845 122.589 59.0638 122.979 59.0638 123.469V123.703L59.4075 122H64.0169L61.72 132.875C61.6263 133.188 61.5794 133.531 61.5794 133.906C61.5794 134.344 61.6835 134.651 61.8919 134.828C62.1002 135.005 62.4335 135.094 62.8919 135.094C63.2044 135.094 63.4388 135.047 63.595 134.953C63.345 135.578 63.1263 136.078 62.9388 136.453C62.7513 136.828 62.5429 137.141 62.3138 137.391C62.0638 137.661 61.7825 137.865 61.47 138C61.1679 138.125 60.8138 138.188 60.4075 138.188C59.5221 138.188 58.8085 137.932 58.2669 137.422C57.7252 136.901 57.3919 136.167 57.2669 135.219C56.7044 136.073 56.0742 136.75 55.3763 137.25C54.5117 137.875 53.5533 138.188 52.5013 138.188ZM75.345 138.188C74.3242 138.188 73.5169 137.885 72.9231 137.281C72.2565 136.615 71.9231 135.641 71.9231 134.359C71.9231 133.755 72.0065 133.057 72.1731 132.266L72.345 131.469C71.72 132.156 71.0429 132.641 70.3138 132.922C69.7617 133.151 69.1575 133.266 68.5013 133.266C67.4804 133.266 66.6731 132.964 66.0794 132.359C65.4127 131.693 65.0794 130.714 65.0794 129.422C65.0794 128.807 65.1627 128.115 65.3294 127.344L66.4544 122H71.0638L69.8138 127.953C69.7513 128.266 69.72 128.562 69.72 128.844C69.72 129.719 70.0377 130.156 70.6731 130.156C71.2877 130.156 71.8242 129.896 72.2825 129.375C72.7304 128.865 73.0481 128.188 73.2356 127.344L74.3606 122H78.9544L76.6575 132.875C76.5742 133.146 76.5325 133.49 76.5325 133.906C76.5325 134.344 76.6315 134.651 76.8294 134.828C77.0377 135.005 77.3763 135.094 77.845 135.094C78.1158 135.094 78.3138 135.078 78.4388 135.047C78.5638 135.016 78.7044 134.964 78.8606 134.891C78.7877 135.953 78.3971 136.786 77.6888 137.391C77.3763 137.661 77.0169 137.865 76.6106 138C76.2148 138.125 75.7929 138.188 75.345 138.188ZM54.5794 135.094C54.819 135.094 55.069 135.031 55.3294 134.906C55.6002 134.781 55.8606 134.604 56.1106 134.375C56.6731 133.833 57.0481 133.13 57.2356 132.266L58.7669 125.047C58.7669 124.943 58.7408 124.823 58.6888 124.688C58.6471 124.542 58.5846 124.406 58.5013 124.281C58.2513 123.979 57.9023 123.828 57.4544 123.828C57.0273 123.828 56.6106 123.969 56.2044 124.25C55.8085 124.531 55.4335 124.922 55.0794 125.422C54.4544 126.328 53.9388 127.51 53.5325 128.969C53.345 129.615 53.2044 130.255 53.1106 130.891C53.0169 131.516 52.97 132.083 52.97 132.594C52.97 133.656 53.1679 134.375 53.5638 134.75C53.6992 134.896 53.8502 134.99 54.0169 135.031C54.1835 135.073 54.371 135.094 54.5794 135.094ZM84.1881 138.188C82.6152 138.188 81.4017 137.792 80.5475 137C79.6413 136.156 79.1881 134.859 79.1881 133.109C79.1881 132.453 79.2558 131.724 79.3913 130.922C79.5163 130.12 79.709 129.318 79.9694 128.516C80.261 127.62 80.6308 126.771 81.0788 125.969C81.5371 125.167 82.0683 124.458 82.6725 123.844C84.0683 122.427 85.7871 121.719 87.8288 121.719C89.1308 121.719 90.0788 122.031 90.6725 122.656C91.1308 123.146 91.36 123.854 91.36 124.781C91.36 125.688 91.1621 126.542 90.7663 127.344C90.3704 128.135 89.8235 128.839 89.1256 129.453C88.4277 130.057 87.636 130.542 86.7506 130.906C85.8652 131.26 84.9485 131.469 84.0006 131.531C83.9485 132.073 83.9225 132.5 83.9225 132.812C83.9225 133.854 84.1204 134.573 84.5163 134.969C84.86 135.323 85.4329 135.5 86.235 135.5C87.3913 135.5 88.4485 135.188 89.4069 134.562C89.8131 134.302 90.2038 133.995 90.5788 133.641C90.9538 133.276 91.3913 132.818 91.8913 132.266H92.985C91.9746 133.974 90.8131 135.333 89.5006 136.344C87.886 137.573 86.1152 138.188 84.1881 138.188ZM84.2506 130C84.8444 129.958 85.4225 129.786 85.985 129.484C86.5475 129.182 87.0475 128.786 87.485 128.297C87.9225 127.797 88.2663 127.24 88.5163 126.625C88.7663 126 88.8913 125.365 88.8913 124.719C88.8913 124.292 88.8288 123.969 88.7038 123.75C88.5892 123.521 88.386 123.406 88.0944 123.406C87.709 123.406 87.3183 123.594 86.9225 123.969C86.5371 124.344 86.1621 124.859 85.7975 125.516C85.4642 126.13 85.1621 126.828 84.8913 127.609C84.6204 128.391 84.4069 129.188 84.2506 130ZM97.1094 138.188C95.5365 138.188 94.3229 137.792 93.4688 137C92.5625 136.156 92.1094 134.859 92.1094 133.109C92.1094 132.453 92.1771 131.724 92.3125 130.922C92.4375 130.109 92.6354 129.302 92.9062 128.5C93.5417 126.552 94.4427 125 95.6094 123.844C97.0469 122.427 98.75 121.719 100.719 121.719C102 121.719 102.948 122.026 103.562 122.641C104.042 123.13 104.281 123.802 104.281 124.656C104.281 125.406 104.115 125.99 103.781 126.406C103.469 126.792 103.068 126.984 102.578 126.984C102.224 126.984 101.849 126.859 101.453 126.609C101.714 125.932 101.844 125.302 101.844 124.719C101.844 124.312 101.766 123.995 101.609 123.766C101.464 123.526 101.245 123.406 100.953 123.406C100.328 123.406 99.6771 123.958 99 125.062C98.3854 126.042 97.875 127.286 97.4688 128.797C97.0521 130.276 96.8438 131.615 96.8438 132.812C96.8438 133.854 97.0417 134.573 97.4375 134.969C97.7812 135.323 98.3542 135.5 99.1562 135.5C100.312 135.5 101.37 135.188 102.328 134.562C102.734 134.302 103.125 133.995 103.5 133.641C103.875 133.276 104.312 132.818 104.812 132.266H105.906C104.896 133.974 103.734 135.333 102.422 136.344C100.807 137.573 99.0365 138.188 97.1094 138.188ZM124.906 138.188C123.583 138.188 122.604 137.812 121.968 137.062C121.416 136.417 121.14 135.589 121.14 134.578C121.14 134.099 121.197 133.542 121.312 132.906C121.437 132.271 121.619 131.453 121.859 130.453C122.098 129.432 122.275 128.62 122.39 128.016C122.515 127.401 122.577 126.87 122.577 126.422C122.577 125.328 122.192 124.781 121.421 124.781C120.88 124.781 120.38 125.068 119.921 125.641C119.536 126.13 119.202 126.828 118.921 127.734L116.749 138H112.14L114.484 126.953C114.546 126.703 114.577 126.438 114.577 126.156C114.577 125.729 114.51 125.401 114.374 125.172C114.197 124.891 113.942 124.75 113.609 124.75C113.005 124.75 112.479 125.042 112.031 125.625C111.635 126.125 111.296 126.828 111.015 127.734L108.843 138H104.234L107.624 122H112.234L111.89 123.656C112.515 122.958 113.197 122.464 113.937 122.172C114.52 121.953 115.14 121.844 115.796 121.844C116.692 121.844 117.406 122.052 117.937 122.469C118.531 122.938 118.911 123.646 119.077 124.594C119.765 123.531 120.557 122.781 121.452 122.344C122.088 122.031 122.781 121.875 123.531 121.875C124.604 121.875 125.452 122.156 126.077 122.719C126.744 123.333 127.077 124.255 127.077 125.484C127.077 126.182 126.947 127.146 126.687 128.375C126.583 128.885 126.458 129.401 126.312 129.922C126.051 130.922 125.838 131.844 125.671 132.688C125.588 133.125 125.546 133.479 125.546 133.75C125.546 134.177 125.64 134.51 125.827 134.75C126.025 134.979 126.359 135.094 126.827 135.094C127.463 135.094 127.999 134.833 128.437 134.312C128.77 133.917 129.13 133.234 129.515 132.266H130.859C130.067 134.609 129.067 136.25 127.859 137.188C127.005 137.854 126.02 138.188 124.906 138.188ZM135.014 138.125C133.264 138.125 131.921 137.583 130.983 136.5C130.129 135.51 129.702 134.135 129.702 132.375C129.702 131.802 129.77 131.099 129.905 130.266C130.03 129.422 130.212 128.516 130.452 127.547C130.973 125.464 131.665 123.427 132.53 121.438C133.488 119.25 134.54 117.5 135.686 116.188C136.978 114.708 138.29 113.969 139.624 113.969C140.738 113.969 141.592 114.302 142.186 114.969C142.822 115.698 143.139 116.828 143.139 118.359C143.139 119.568 142.842 120.938 142.249 122.469C141.801 123.625 141.228 124.812 140.53 126.031C140.978 126.25 141.379 126.568 141.733 126.984C142.66 126.984 143.712 126.766 144.889 126.328C145.941 125.953 146.842 125.5 147.592 124.969L147.889 125.844C147.296 126.469 146.53 127.01 145.592 127.469C144.655 127.917 143.613 128.24 142.467 128.438C142.582 128.833 142.639 129.365 142.639 130.031C142.639 131.094 142.467 132.109 142.124 133.078C141.78 134.047 141.28 134.906 140.624 135.656C139.947 136.438 139.129 137.047 138.171 137.484C137.223 137.911 136.171 138.125 135.014 138.125ZM136.421 135.25C136.921 135.25 137.379 135.12 137.796 134.859C138.212 134.599 138.566 134.24 138.858 133.781C139.139 133.354 139.353 132.88 139.499 132.359C139.645 131.828 139.717 131.297 139.717 130.766C139.717 129.974 139.624 129.391 139.436 129.016C139.228 129.089 139.051 129.141 138.905 129.172C138.77 129.193 138.561 129.203 138.28 129.203C137.77 129.203 137.363 129.062 137.061 128.781C136.77 128.5 136.624 128.115 136.624 127.625C136.624 126.99 136.837 126.51 137.264 126.188C137.608 125.927 138.139 125.771 138.858 125.719C139.431 124.688 139.947 123.474 140.405 122.078C140.863 120.651 141.092 119.365 141.092 118.219C141.092 117.573 141.009 117.12 140.842 116.859C140.686 116.599 140.421 116.469 140.046 116.469C139.712 116.469 139.374 116.646 139.03 117C138.686 117.354 138.348 117.849 138.014 118.484C137.41 119.661 136.816 121.229 136.233 123.188C135.733 124.844 135.306 126.625 134.952 128.531C134.629 130.24 134.467 131.552 134.467 132.469C134.467 133.333 134.619 134 134.921 134.469C135.244 134.99 135.744 135.25 136.421 135.25ZM149.014 138.188C147.795 138.188 146.811 137.807 146.061 137.047C145.186 136.151 144.748 134.818 144.748 133.047C144.748 132.297 144.826 131.505 144.982 130.672C145.128 129.839 145.347 129.016 145.639 128.203C146.305 126.37 147.217 124.891 148.373 123.766C149.706 122.484 151.243 121.844 152.982 121.844C153.847 121.844 154.493 121.995 154.92 122.297C155.357 122.589 155.576 122.979 155.576 123.469V123.703L155.92 122H160.529L158.232 132.875C158.139 133.188 158.092 133.531 158.092 133.906C158.092 134.823 158.529 135.281 159.404 135.281C159.988 135.281 160.519 134.984 160.998 134.391C161.404 133.891 161.738 133.182 161.998 132.266H163.342C162.769 133.891 162.076 135.177 161.264 136.125C160.576 136.906 159.8 137.469 158.936 137.812C158.3 138.062 157.628 138.188 156.92 138.188C156.014 138.188 155.29 137.943 154.748 137.453C154.217 136.953 153.894 136.219 153.779 135.25C153.175 136.104 152.54 136.771 151.873 137.25C151.019 137.875 150.066 138.188 149.014 138.188ZM151.092 135.094C151.331 135.094 151.581 135.031 151.842 134.906C152.113 134.781 152.373 134.604 152.623 134.375C153.186 133.833 153.561 133.13 153.748 132.266L155.279 125.047C155.279 124.943 155.253 124.823 155.201 124.688C155.16 124.542 155.097 124.406 155.014 124.281C154.764 123.979 154.415 123.828 153.967 123.828C153.54 123.828 153.123 123.969 152.717 124.25C152.321 124.531 151.946 124.922 151.592 125.422C150.967 126.328 150.451 127.51 150.045 128.969C149.857 129.615 149.717 130.255 149.623 130.891C149.529 131.516 149.482 132.083 149.482 132.594C149.482 133.656 149.68 134.375 150.076 134.75C150.212 134.896 150.363 134.99 150.529 135.031C150.696 135.073 150.884 135.094 151.092 135.094Z" fill="#734B0F"/>
<path d="M142.328 105.299C140.646 105.299 139.223 105.027 138.061 104.482C136.923 103.938 136.057 103.184 135.463 102.219C134.894 101.279 134.609 100.215 134.609 99.0273C134.609 97.7656 134.882 96.5039 135.426 95.2422C136.193 96.2318 136.984 96.9368 137.801 97.3574C138.642 97.778 139.545 97.9883 140.51 97.9883C141.846 97.9883 142.996 97.5924 143.961 96.8008C144.926 95.9844 145.73 94.8835 146.373 93.498C146.942 92.2611 147.363 90.8757 147.635 89.3418C147.907 87.7832 148.043 86.237 148.043 84.7031C148.043 81.7839 147.536 79.5697 146.521 78.0605C145.309 76.2546 143.404 75.3516 140.807 75.3516C139.446 75.3516 138.209 75.6237 137.096 76.168L131.084 104H120.137L130.936 53.7539C130.49 53.7539 130.169 53.7415 129.971 53.7168C129.748 53.6921 129.414 53.6797 128.969 53.6797C126.322 53.6797 124.243 53.8529 122.734 54.1992C120.607 54.694 118.937 55.6094 117.725 56.9453C116.908 57.8854 116.265 59.0482 115.795 60.4336C115.325 61.819 115.09 63.3034 115.09 64.8867C115.09 66.5195 115.312 68.1523 115.758 69.7852C116.228 71.3932 116.958 72.9147 117.947 74.3496C117.156 74.498 116.389 74.5723 115.646 74.5723C113.84 74.5723 112.294 74.1517 111.008 73.3105C110.043 72.6673 109.288 71.8138 108.744 70.75C108.2 69.6615 107.928 68.3626 107.928 66.8535C107.928 65.2702 108.175 63.6868 108.67 62.1035C109.165 60.5202 109.895 59.0111 110.859 57.5762C111.849 56.0671 113.086 54.6816 114.57 53.4199C116.055 52.1335 117.762 51.0326 119.691 50.1172C123.897 48.0885 128.857 47.0742 134.572 47.0742C138.061 47.0742 140.955 47.2721 143.256 47.668L137.949 72.2344C139.409 71.7396 140.745 71.3932 141.957 71.1953C143.194 70.9727 144.456 70.8613 145.742 70.8613C149.997 70.8613 153.251 72.1849 155.502 74.832C156.541 76.0938 157.32 77.5781 157.84 79.2852C158.359 80.9922 158.619 82.8724 158.619 84.9258C158.619 86.237 158.483 87.6471 158.211 89.1562C157.939 90.6406 157.531 92.1126 156.986 93.5723C156.417 95.1309 155.688 96.6152 154.797 98.0254C153.906 99.4108 152.88 100.635 151.717 101.699C149.07 104.099 145.94 105.299 142.328 105.299Z" fill="#734B0F"/>
<path d="M43.0619 99.7046C40.8149 99.7046 39.0566 99.2603 37.787 98.3716C36.454 97.4321 35.7875 96.0928 35.7875 94.3535C35.7875 93.2998 36.0922 92.4492 36.7016 91.8018C37.2983 91.167 38.0536 90.8496 38.9677 90.8496C39.5136 90.8496 39.9452 90.9321 40.2626 91.0972C40.5927 91.2622 40.8783 91.5161 41.1196 91.8589C40.1547 92.4302 39.6723 93.3696 39.6723 94.6772C39.6723 95.0454 39.7358 95.3945 39.8627 95.7246C40.0024 96.042 40.1991 96.3149 40.453 96.5435C41.0116 97.064 41.7797 97.3242 42.7572 97.3242C43.6332 97.3242 44.4203 97.1021 45.1186 96.6577C45.8168 96.2007 46.4072 95.5659 46.8896 94.7534C47.3466 94.0044 47.6957 93.1475 47.9369 92.1826C48.1781 91.2178 48.2988 90.2275 48.2988 89.2119C48.2988 87.5107 47.9052 86.2539 47.1181 85.4414C46.3818 84.7051 45.2773 84.3369 43.8046 84.3369H42.1669L42.7953 81.4424H44.2045C45.0424 81.4424 45.8041 81.252 46.4897 80.8711C47.1879 80.4775 47.7782 79.957 48.2607 79.3096C48.705 78.7256 49.0414 78.0845 49.2699 77.3862C49.5112 76.6753 49.6318 76.0151 49.6318 75.4058C49.6318 74.4536 49.3652 73.7109 48.832 73.1777C48.3114 72.6318 47.5624 72.3589 46.5849 72.3589C44.1347 72.3589 42.1415 73.8569 40.6054 76.853L39.7104 76.4531C39.977 75.374 40.3959 74.4092 40.9672 73.5586C41.5385 72.708 42.224 71.9971 43.0238 71.4258C43.7729 70.8799 44.6044 70.4736 45.5185 70.207C46.4452 69.9277 47.4101 69.7881 48.413 69.7881C50.7616 69.7881 52.5453 70.3467 53.7641 71.4639C54.9067 72.5303 55.478 74.0283 55.478 75.958C55.478 77.4941 54.9574 78.8652 53.9164 80.0713C52.8881 81.2266 51.4599 82.1152 49.6318 82.7373C51.2568 83.2197 52.4819 83.9624 53.3071 84.9653C54.2084 86.0698 54.6591 87.4092 54.6591 88.9834C54.6591 90.4307 54.3925 91.8081 53.8593 93.1157C53.3261 94.4106 52.558 95.5469 51.5551 96.5244C50.5268 97.5273 49.289 98.3081 47.8417 98.8667C46.4072 99.4253 44.8139 99.7046 43.0619 99.7046ZM71.5875 99.2285C70.0895 99.2285 68.9342 98.8096 68.1217 97.9717C67.7536 97.6035 67.4743 97.1719 67.2838 96.6768C67.0934 96.1689 66.9982 95.6421 66.9982 95.0962C66.9982 94.6138 67.068 93.96 67.2077 93.1348C67.36 92.3096 67.5885 91.1416 67.8932 89.6309H63.5704L61.5709 99H55.9533L60.0856 79.5H65.7033L64.0275 87.3076H68.3883L70.1593 79.5H75.3771L73.3204 89.1738L72.6349 92.1826C72.4572 92.9697 72.3683 93.5156 72.3683 93.8203C72.3683 94.9121 72.8888 95.458 73.9298 95.458C74.3234 95.458 74.6662 95.3945 74.9581 95.2676C75.2501 95.1279 75.5231 94.9121 75.777 94.6201C76.0055 94.3535 76.2213 94.0234 76.4245 93.6299C76.6403 93.2363 76.9005 92.6968 77.2052 92.0112H78.8429C77.2052 96.8228 74.7868 99.2285 71.5875 99.2285ZM82.6698 99.2285C81.1844 99.2285 79.9847 98.7651 79.0707 97.8384C78.0043 96.7466 77.4711 95.1216 77.4711 92.9634C77.4711 92.0493 77.5663 91.0845 77.7567 90.0688C77.9344 89.0532 78.201 88.0503 78.5565 87.0601C79.369 84.8257 80.4798 83.0229 81.889 81.6519C83.514 80.0903 85.3866 79.3096 87.5067 79.3096C88.5604 79.3096 89.3475 79.4937 89.868 79.8618C90.4012 80.2173 90.6678 80.6934 90.6678 81.29V81.5757L91.0868 79.5H96.7045L93.9051 92.7539C93.7909 93.1348 93.7338 93.5537 93.7338 94.0107C93.7338 95.1279 94.267 95.6865 95.3334 95.6865C96.0443 95.6865 96.6918 95.3247 97.2757 94.6011C97.7709 93.9917 98.1771 93.1284 98.4945 92.0112H100.132C99.4339 93.9917 98.5897 95.5596 97.5995 96.7148C96.7616 97.667 95.8158 98.3525 94.7621 98.7715C93.9877 99.0762 93.1688 99.2285 92.3055 99.2285C91.201 99.2285 90.3187 98.9302 89.6586 98.3335C89.0111 97.7241 88.6175 96.8291 88.4779 95.6484C87.7416 96.6895 86.9672 97.502 86.1547 98.0859C85.1136 98.8477 83.952 99.2285 82.6698 99.2285ZM85.2025 95.458C85.4945 95.458 85.7992 95.3818 86.1166 95.2295C86.4466 95.0771 86.764 94.8613 87.0687 94.582C87.7543 93.9219 88.2113 93.0649 88.4398 92.0112L90.306 83.2134C90.306 83.0864 90.2743 82.9404 90.2108 82.7754C90.16 82.5977 90.0839 82.4326 89.9823 82.2803C89.6776 81.9121 89.2523 81.728 88.7064 81.728C88.1859 81.728 87.6781 81.8994 87.183 82.2422C86.7006 82.585 86.2435 83.061 85.8119 83.6704C85.0502 84.7749 84.4217 86.2158 83.9266 87.9932C83.6981 88.7803 83.5267 89.561 83.4125 90.3354C83.2982 91.0972 83.2411 91.7891 83.2411 92.4111C83.2411 93.7061 83.4823 94.582 83.9647 95.0391C84.1297 95.2168 84.3138 95.3311 84.517 95.3818C84.7201 95.4326 84.9486 95.458 85.2025 95.458ZM113.366 99.2285C111.817 99.2285 110.643 98.8477 109.843 98.0859C109.056 97.3242 108.663 96.2642 108.663 94.9058C108.663 94.4614 108.739 93.7949 108.891 92.9062C108.917 92.7031 108.942 92.5635 108.967 92.4873C108.993 92.2334 109.018 92.062 109.044 91.9731C109.094 91.7192 109.12 91.459 109.12 91.1924C109.12 89.9482 108.625 89.3262 107.634 89.3262C107.304 89.3262 106.949 89.4404 106.568 89.6689L105.94 90.126L105.14 90.7734L103.426 99H97.8082L101.979 79.5H107.596L105.92 87.2314C106.758 86.3936 107.571 85.5493 108.358 84.6987L108.644 84.375C110.154 82.75 111.183 81.6646 111.729 81.1187C112.63 80.2173 113.481 79.6333 114.28 79.3667C114.725 79.2271 115.188 79.1572 115.67 79.1572C116.546 79.1572 117.213 79.3984 117.67 79.8809C118.127 80.3506 118.356 80.9663 118.356 81.728C118.356 82.5278 118.14 83.1499 117.708 83.5942C117.289 84.0386 116.686 84.2607 115.899 84.2607C115.175 84.2607 114.623 84.0386 114.242 83.5942C113.899 83.2134 113.741 82.769 113.766 82.2612C113.36 82.5024 112.973 82.7881 112.605 83.1182C112.249 83.4355 111.856 83.8164 111.424 84.2607L111.043 84.6797C110.865 84.8574 110.624 85.124 110.319 85.4795C110.002 85.8477 109.615 86.2603 109.158 86.7173C109.602 86.6157 110.148 86.5649 110.795 86.5649C112.141 86.5649 113.112 86.876 113.709 87.498C114.242 88.0439 114.509 88.939 114.509 90.1831C114.509 90.6021 114.433 91.2178 114.28 92.0303C114.217 92.3477 114.16 92.6841 114.109 93.0396C114.058 93.3823 114.033 93.7061 114.033 94.0107C114.033 94.9756 114.553 95.458 115.594 95.458C115.988 95.458 116.324 95.3945 116.604 95.2676C116.896 95.1279 117.162 94.9121 117.403 94.6201C117.632 94.3535 117.854 94.0171 118.07 93.6108C118.286 93.2046 118.54 92.6714 118.832 92.0112H120.469C118.832 96.8228 116.464 99.2285 113.366 99.2285Z" fill="#734B0F"/>
<path d="M51.9283 38.1072L49.61 38.4514L49.0359 33.6103L44.5152 34.2814L45.0892 39.1225L42.7708 39.4666L41.4315 28.1707L43.7498 27.8266L44.2925 32.4039L48.8133 31.7328L48.2706 27.1555L50.5889 26.8113L51.9283 38.1072Z" fill="#734B0F"/>
<path d="M63.0671 34.4617L58.982 34.9076L58.4089 37.3273L55.9315 37.5977L59.1528 25.8062L61.3118 25.5705L66.5326 36.4405L64.0551 36.711L63.0671 34.4617ZM59.4462 32.9477L62.2731 32.6391L60.482 28.5525L59.4462 32.9477Z" fill="#734B0F"/>
<path d="M79.3921 35.5049L77.0541 35.6689L72.0842 28.5154L72.5028 35.9881L70.1648 36.1521L69.5285 24.7949L71.8665 24.6309L76.8451 31.7994L76.4257 24.3112L78.7559 24.1477L79.3921 35.5049Z" fill="#734B0F"/>
<path d="M84.3691 35.2846L84.085 23.9132L87.5833 23.8038C88.5828 23.7725 89.4812 23.9711 90.2786 24.3995C91.0811 24.8225 91.714 25.4436 92.1773 26.2629C92.6405 27.0769 92.8853 28.0124 92.9117 29.0694L92.9247 29.5926C92.9511 30.6496 92.756 31.5962 92.3392 32.4326C91.9277 33.2688 91.332 33.9257 90.552 34.4034C89.772 34.8812 88.885 35.1382 87.8908 35.1745L84.3691 35.2846ZM86.475 25.7378L86.6647 33.3292L87.7969 33.2937C88.7131 33.2651 89.4058 32.9438 89.875 32.3299C90.3442 31.716 90.5701 30.8517 90.5527 29.7372L90.5376 29.1358C90.5088 27.9799 90.2474 27.1127 89.7537 26.5341C89.2598 25.9503 88.5521 25.6728 87.6307 25.7016L86.475 25.7378Z" fill="#734B0F"/>
<path d="M109.059 23.7614L111.757 32.107L114.884 23.9581L117.96 24.062L117.653 35.4329L115.303 35.3535L115.387 32.2453L115.766 26.8879L112.469 35.2578L110.86 35.2034L108.028 26.6344L108.118 31.9997L108.034 35.108L105.692 35.0288L105.998 23.658L109.059 23.7614Z" fill="#734B0F"/>
<path d="M129.122 33.9293L125.025 33.6162L124.103 35.896L121.618 35.7062L126.533 24.6749L128.699 24.8404L132.251 36.5187L129.766 36.3288L129.122 33.9293ZM125.772 31.7695L128.607 31.9861L127.441 27.6273L125.772 31.7695Z" fill="#734B0F"/>
<path d="M135.87 36.9246L136.903 25.5966L140.381 25.9938C141.374 26.1073 142.241 26.4342 142.981 26.9747C143.727 27.5106 144.282 28.2186 144.646 29.0988C145.011 29.9737 145.145 30.9376 145.049 31.9905L145.002 32.5118C144.906 33.5647 144.603 34.4761 144.093 35.246C143.589 36.0165 142.923 36.5824 142.095 36.9438C141.268 37.3052 140.359 37.4321 139.371 37.3244L135.87 36.9246ZM139.059 27.7532L138.37 35.3155L139.495 35.4441C140.406 35.5481 141.129 35.3293 141.665 34.7878C142.2 34.2463 142.524 33.4211 142.636 32.3123L142.69 31.7133C142.795 30.5618 142.637 29.6632 142.215 29.0176C141.793 28.3667 141.124 27.989 140.208 27.8844L139.059 27.7532Z" fill="#734B0F"/>
<path d="M156.48 34.7026L152.03 34.0307L151.665 37.0557L156.888 37.8442L156.662 39.7134L149.123 38.575L150.485 27.2818L158.009 28.4179L157.781 30.3027L152.575 29.5165L152.25 32.208L156.7 32.8798L156.48 34.7026Z" fill="#734B0F"/>
</svg>
